
        <svg xmlns="http://www.w3.org/2000/svg" xmlns:xlink="http://www.w3.org/1999/xlink" version="1.1" width="3189.2060491692278" 
        height="802.2336484775257" viewBox="0 0 3189.2060491692278 802.2336484775257">
			<rect fill="#393e46" width="3189.2060491692278" height="802.2336484775257"/>
			<g transform="scale(9.460302458461388) translate(10, 10)">
				<defs id="SvgjsDefs1332"><linearGradient id="SvgjsLinearGradient1339"><stop id="SvgjsStop1340" stop-color="#b88746" offset="0"></stop><stop id="SvgjsStop1341" stop-color="#fdf5a6" offset="1"></stop></linearGradient><linearGradient id="SvgjsLinearGradient1342"><stop id="SvgjsStop1343" stop-color="#b88746" offset="0"></stop><stop id="SvgjsStop1344" stop-color="#fdf5a6" offset="1"></stop></linearGradient><linearGradient id="SvgjsLinearGradient1345"><stop id="SvgjsStop1346" stop-color="#b88746" offset="0"></stop><stop id="SvgjsStop1347" stop-color="#fdf5a6" offset="1"></stop></linearGradient></defs><g id="SvgjsG1333" featureKey="nameLeftFeature-0" transform="matrix(2.528090000152588,0,0,2.528090000152588,-0.0000012808301681480542,3.724720028942409)" fill="url(#SvgjsLinearGradient1339)"><path d="M2.46 8.32 l0.62 -0.94 l0.52 -0.7 c0.04 -0.04 0.26 -0.3 0.32 -0.36 c0.96 -1.04 2 -1.86 3.48 -1.86 c0.6 0.08 0.84 0.62 0.84 1.16 c0 0.22 -0.02 0.42 -0.1 0.62 c-0.36 1.16 -1.04 2.12 -1.84 3 c-0.12 0.12 -0.54 0.52 -0.58 0.58 l-1.42 1.32 l-1.66 1.34 s-0.02 0.02 -0.02 0.04 l-0.36 1.38 c-0.12 0.44 -0.16 0.9 -0.16 1.36 c0 0.92 0.28 2.22 1.44 2.22 c0.94 0 1.7 -1 2.1 -1.74 c0.04 -0.04 0.1 -0.18 0.1 -0.18 l0 -0.02 c-0.16 0 -0.32 0.04 -0.5 0.04 c-0.92 0 -1.88 -0.64 -1.88 -1.64 s0.96 -1.98 1.96 -1.98 c0.96 0 1.5 0.68 1.5 1.6 c0 0.38 -0.1 0.74 -0.2 1.12 l0 0.02 l0.02 0 s0.14 -0.08 0.2 -0.12 c0.58 -0.32 1.12 -0.76 1.56 -1.24 c0.12 -0.12 0.46 -0.48 0.48 -0.52 l0.6 -0.74 c0 -0.04 0.02 -0.1 0.02 -0.12 l0.22 0 c0.14 0 0.2 0.14 0.24 0.28 c-0.04 0.08 -0.26 0.36 -0.32 0.42 c-0.14 0.18 -0.58 0.7 -0.62 0.74 l-0.66 0.66 c-0.52 0.52 -1.26 1.02 -1.96 1.3 c-0.1 0.16 -0.18 0.38 -0.28 0.56 c-0.02 0.02 -0.12 0.2 -0.14 0.24 c-0.66 1.1 -1.76 2.24 -3.14 2.24 c-1.14 0 -2.22 -0.68 -2.62 -1.76 c-0.16 -0.48 -0.22 -0.94 -0.22 -1.42 c0 -0.86 0.18 -1.74 0.44 -2.54 l0.36 -1.06 l0.44 -1.04 l0.62 -1.22 z M3.26 10.6 l0.02 0 l1.5 -1.04 l0.8 -0.62 c0.04 -0.04 0.36 -0.32 0.46 -0.42 c0.74 -0.68 1.6 -1.68 1.6 -2.74 c0 -0.18 -0.04 -0.34 -0.24 -0.34 c-0.48 0 -2.12 1.42 -2.12 1.56 l-0.64 0.86 c-0.62 0.82 -1.06 1.78 -1.38 2.74 z M4.32 14.059999999999999 c0 0.62 0.48 1 1.06 1 c0.12 0 0.56 -0.04 0.62 -0.12 c0.16 -0.46 0.32 -0.96 0.32 -1.46 c0 -0.54 -0.26 -0.78 -0.8 -0.78 c-0.7 0 -1.2 0.7 -1.2 1.36 z M6.62 14.719999999999999 l0 -0.02 l0 0.02 z M9.916 14.02 l0.02 -0.18 c0.22 -1.66 1.1 -2.86 2.6 -3.54 c0.92 0.48 1.96 0.88 3.02 0.88 c0.22 0 0.44 -0.04 0.66 -0.04 l0 0.02 c-0.06 0.04 -0.26 0.3 -0.3 0.36 c-0.06 0.06 -0.2 0.26 -0.22 0.28 l-0.48 0.76 l-1.26 2.36 l-0.36 0.82 l-0.44 1.16 c-0.06 0.14 -0.08 0.3 -0.08 0.46 c0 0.14 0.02 0.24 0.18 0.24 c0.3 0 0.68 -0.3 0.88 -0.48 c0.08 -0.04 0.36 -0.3 0.42 -0.36 c0.12 -0.1 0.64 -0.6 0.74 -0.72 c0.18 -0.18 0.74 -0.8 0.82 -0.88 l2.06 -2.52 l0 -0.04 l0.02 -0.06 l0.08 0 c0.08 0 0.16 0 0.24 0.02 c0.04 0.04 0.12 0.12 0.12 0.18 l0 0.2 l-0.06 0 l-0.9 1.16 l-1.64 1.92 l-0.9 0.92 c-0.02 0.02 -0.24 0.22 -0.3 0.28 c-0.62 0.52 -1.54 1.32 -2.42 1.32 c-0.92 0 -1.18 -0.82 -1.18 -1.6 c0 -0.62 0.2 -1.22 0.42 -1.78 c0.06 -0.12 0.3 -0.64 0.36 -0.74 c0.06 -0.14 0.32 -0.6 0.36 -0.68 l1 -1.56 l0 -0.02 s-0.08 -0.04 -0.12 -0.08 c-0.26 -0.18 -0.58 -0.34 -0.92 -0.34 c-1 0 -1.74 1.24 -2.02 2.04 l-0.14 0.38 c-0.1 0 -0.2 -0.06 -0.26 -0.14 z M21.212 10 c0 -0.7 0.76 -1.5 1.48 -1.5 c0.5 0 0.78 0.38 0.78 0.88 c0 0.7 -0.66 1.48 -1.4 1.48 c-0.48 0 -0.86 -0.36 -0.86 -0.86 z M18.832 15.7 c0 -0.62 0.22 -1.24 0.44 -1.82 c0.02 -0.06 0.12 -0.34 0.14 -0.36 l1 -2.16 c0.08 -0.18 0.2 -0.3 0.38 -0.3 c0.16 0 0.3 0.06 0.44 0.1 c0.34 0.12 0.84 0.32 0.84 0.76 c0 0.06 0 0.14 -0.04 0.18 c-0.28 0.46 -0.56 1.04 -0.8 1.54 c-0.04 0.1 -0.26 0.62 -0.3 0.74 c-0.14 0.36 -0.28 0.78 -0.28 1.16 c0 0.14 0.02 0.24 0.18 0.24 c0.32 0 0.66 -0.22 0.92 -0.36 c0.06 -0.04 0.28 -0.16 0.3 -0.18 c0.16 -0.12 0.64 -0.44 0.68 -0.48 l0.8 -0.6 l0.18 -0.18 l0.8 -0.88 l0.84 -1.06 c0.04 -0.04 0.12 -0.14 0.18 -0.16 c0.12 0 0.36 0.02 0.36 0.18 l0 0.14 l-0.46 0.62 l-0.68 0.84 l-0.8 0.86 c-0.06 0.06 -0.5 0.48 -0.64 0.6 c-0.82 0.82 -2.2 1.74 -3.38 1.74 c-0.72 0 -1.1 -0.46 -1.1 -1.16 z M31.888 11.42 c0.12 -0.22 0.28 -0.64 0.6 -0.64 c0.14 0 0.26 0.08 0.4 0.16 c0.24 0.16 0.7 0.38 0.7 0.76 c0 0.14 -0.08 0.26 -0.14 0.36 l-0.72 1.52 l-0.74 1.84 l-0.28 0.86 l-0.2 0.72 c-0.04 0.2 -0.08 0.46 -0.08 0.7 c0 0.04 0 0.16 0.06 0.16 c0.18 0 0.38 -0.22 0.48 -0.32 l0.28 -0.28 c0.08 -0.1 0.36 -0.4 0.4 -0.44 l1.16 -1.4 l2.58 -3.48 c0.04 -0.04 0.08 -0.12 0.16 -0.12 c0.16 0 0.32 0.08 0.32 0.28 l0 0.04 l-0.56 0.82 l-2.44 3.26 l-0.94 1.08 c-0.04 0.02 -0.44 0.44 -0.58 0.58 c-0.26 0.26 -0.88 0.82 -1.28 0.82 c-0.96 0 -1.24 -0.84 -1.24 -1.66 c0 -0.74 0.2 -1.46 0.46 -2.16 c-0.02 0 -0.04 0.02 -0.04 0.02 c-0.06 0.04 -0.26 0.22 -0.3 0.26 l-0.88 0.76 c-0.06 0.04 -0.46 0.34 -0.58 0.42 c-0.38 0.28 -0.88 0.6 -1.38 0.6 c-0.7 0 -1.04 -0.56 -1.04 -1.2 c0 -0.52 0.18 -1.02 0.4 -1.48 c0.72 -1.56 2.42 -3.4 4.3 -3.4 c0.36 0 0.66 0.12 0.92 0.36 c0.04 0.02 0.18 0.2 0.2 0.2 z M27.588 15.84 c0 0.12 0.1 0.16 0.2 0.16 c0.2 0 0.4 -0.14 0.56 -0.24 c0.08 -0.06 0.36 -0.24 0.38 -0.26 l0.76 -0.6 l1.24 -1.18 l0.46 -0.98 c0.08 -0.16 0.14 -0.36 0.14 -0.54 c0 -0.14 -0.06 -0.2 -0.2 -0.2 c-0.24 0 -0.52 0.14 -0.74 0.26 c-1.1 0.6 -2.18 1.78 -2.64 2.96 c-0.08 0.18 -0.16 0.42 -0.16 0.62 z M30.288 14.879999999999999 l0 -0.02 l0 0.02 z M38.664 11.12 l0 -0.02 c0.16 0 0.28 -0.06 0.42 -0.06 c0.62 0 0.84 0.58 0.84 1.12 c0 0.04 0.02 0.14 -0.02 0.2 l-0.98 1.9 l0 0.02 l1.08 -1.04 l0.94 -0.8 c0.06 -0.04 0.52 -0.38 0.66 -0.48 c0.6 -0.42 1.38 -0.88 2.14 -0.88 c0.42 0 0.66 0.24 0.66 0.64 c0 0.38 -0.14 0.8 -0.3 1.14 l-1.12 2.3 l-0.26 0.68 c-0.08 0.22 -0.18 0.54 -0.18 0.8 c0 0.08 0 0.16 0.1 0.16 c0.34 0 0.7 -0.28 0.94 -0.48 c0.26 -0.16 1.24 -1.04 1.4 -1.28 l0.96 -1.06 l1.42 -1.76 l0.1 -0.1 c0.02 -0.02 0.08 -0.02 0.1 -0.02 c0.1 0 0.22 0.06 0.28 0.14 c0.04 0.08 0.12 0.26 0.12 0.26 l0 0.02 l-0.18 -0.02 l-1.32 1.68 l-1.48 1.66 l-0.74 0.72 c-0.04 0.04 -0.4 0.34 -0.52 0.42 c-0.48 0.38 -1.04 0.72 -1.68 0.72 c-0.86 0 -1.42 -0.64 -1.42 -1.48 c0 -0.38 0.12 -0.78 0.28 -1.12 l0.62 -1.48 c0.06 -0.14 0.08 -0.24 0.08 -0.38 c-0.08 0 -0.2 0.08 -0.28 0.14 c-0.04 0.02 -0.18 0.14 -0.2 0.14 c-0.04 0.04 -0.2 0.16 -0.24 0.2 c-0.14 0.1 -0.5 0.42 -0.54 0.44 l-1.26 1.22 l-1.68 1.82 c-0.2 0.22 -0.42 0.42 -0.72 0.42 c-0.6 0 -1.06 -0.44 -1.06 -1.02 c0 -0.7 0.48 -1.6 0.88 -2.2 l1.92 -2.96 z M38.903999999999996 14.3 c0.02 0 0.02 -0.02 0 -0.02 l0 0.02 z"></path></g><g id="SvgjsG1334" featureKey="inlineSymbolFeature-0" transform="matrix(0.7452904582023621,0,0,0.7452904582023621,139.86192943829784,-4.864523162231)" fill="url(#SvgjsLinearGradient1342)"><title xmlns="http://www.w3.org/2000/svg">21</title><g xmlns="http://www.w3.org/2000/svg" data-name="Group"><path data-name="Compound Path" d="M94.5,49a4,4,0,1,0-3.9-5H67.2a16.5,16.5,0,0,0-2.4-6H82.6a4,4,0,1,0,0-2H63.3l-.3-.4V15.5H77.1a4,4,0,1,0,0-1.9H62a1,1,0,0,0-1,1V33.9a16.6,16.6,0,0,0-7.1-3.1,1,1,0,0,0,.1-.3V22.4a4,4,0,1,0-2,0v8.1H50.9a16.8,16.8,0,0,0-4.9.7V14.4a4,4,0,1,0-2,0V31.5a1,1,0,0,0,.1.5A16.5,16.5,0,0,0,38,36.7V22.4a4,4,0,1,0-2,0V37.5H12.5v-14h0a4,4,0,1,0-1.9,0h0v15a1,1,0,0,0,1,1H36.1l-.4.9a13.5,13.5,0,0,0-10.9,6.2H17.4a4,4,0,1,0,0,2h6.4a13.4,13.4,0,0,0-1.1,5.4c0,.2,0,.4,0,.6H9.4a4,4,0,1,0,0,2H22.8a13.5,13.5,0,0,0,2.8,6H17.4a4,4,0,1,0,0,2H27.7a13.5,13.5,0,0,0,8.4,3h0v15H21.9a4,4,0,1,0,0,1.9H37a1,1,0,0,0,1-1v-16h7V77.6a4,4,0,1,0,2,0V67.5h6V85.6a4,4,0,1,0,2,0V67.5h6V77.6a4,4,0,1,0,2,0V67.5h3.6A10.8,10.8,0,0,0,75.3,63H89.5V77h0a4,4,0,1,0,1.9,0h0V62a1,1,0,0,0-1-1h-14a10.7,10.7,0,0,0,.6-7h5.6a4,4,0,1,0,0-2H76.4a10.9,10.9,0,0,0-7.6-6H90.6A4,4,0,0,0,94.5,49Zm-8-14a2,2,0,1,1-2,2A2,2,0,0,1,86.5,35ZM81,12.5a2,2,0,1,1-2,2A2,2,0,0,1,81,12.5Zm-30,6a2,2,0,1,1,2,2A2,2,0,0,1,51,18.5Zm-8-8a2,2,0,1,1,2,2A2,2,0,0,1,43,10.5Zm-33.5,9a2,2,0,1,1,2,2A2,2,0,0,1,9.5,19.5Zm4,30a2,2,0,1,1,2-2A2,2,0,0,1,13.5,49.5Zm-8,8a2,2,0,1,1,2-2A2,2,0,0,1,5.5,57.5ZM18,85.5a2,2,0,1,1,2-2A2,2,0,0,1,18,85.5Zm30-4a2,2,0,1,1-2-2A2,2,0,0,1,48,81.5Zm8,8a2,2,0,1,1-2-2A2,2,0,0,1,56,89.5Zm8-8a2,2,0,1,1-2-2A2,2,0,0,1,64,81.5ZM92.5,81a2,2,0,1,1-2-2A2,2,0,0,1,92.5,81Zm-6-30a2,2,0,1,1-2,2A2,2,0,0,1,86.5,51Zm8-8a2,2,0,1,1-2,2A2,2,0,0,1,94.5,43ZM35,18.5a2,2,0,1,1,2,2A2,2,0,0,1,35,18.5Zm-21.5,47a2,2,0,1,1,2-2A2,2,0,0,1,13.5,65.5Zm61.9-8.9a8.9,8.9,0,0,1-8.8,8.8H36.1a11.5,11.5,0,1,1,0-23.1h.1a1,1,0,0,0,1.1-.6,14.7,14.7,0,0,1,28.3,5,1,1,0,0,0,1,1A8.9,8.9,0,0,1,75.4,56.6Z"></path></g></g><g id="SvgjsG1335" featureKey="nameRightFeature-0" transform="matrix(2.528090000152588,0,0,2.528090000152588,216.17303188473505,3.724720028942409)" fill="url(#SvgjsLinearGradient1345)"><path d="M9.256 9.32 l1.48 -2.78 l0.14 -0.22 c0.44 0.18 1.36 0.4 1.36 1 c0 0.08 0 0.18 -0.06 0.26 l-0.76 1.46 l0 0.02 c0.16 0 0.32 -0.02 0.48 -0.02 c0.7 0 1.4 0.2 1.4 1 c0 0.48 -0.26 0.88 -0.56 1.24 l-0.06 0 c-0.14 0 -0.36 -0.08 -0.36 -0.26 s0.08 -0.36 0.08 -0.52 c0 -0.48 -0.38 -0.48 -0.74 -0.48 c-0.2 0.02 -0.72 0.08 -0.72 0.08 l-0.04 0 l-0.48 0.98 l-1.3 3 l-0.36 1.02 c-0.16 0.5 -0.32 1.06 -0.32 1.6 c0 0.26 0.04 0.62 0.36 0.66 c1 0 1.78 -0.64 2.46 -1.3 l0.44 -0.44 l0.74 -0.84 l1.64 -2.06 s0.1 -0.14 0.14 -0.2 c0.02 -0.04 0.02 -0.08 0.02 -0.1 l0.02 -0.02 c0.2 0 0.46 0.04 0.46 0.3 l0 0.04 l-1.32 1.76 l-1.56 1.78 l-0.76 0.74 c-0.04 0.06 -0.44 0.4 -0.58 0.5 c-0.5 0.4 -1.18 0.88 -1.86 0.88 c-1.38 0 -1.98 -0.92 -1.98 -2.22 c0 -0.6 0.1 -1.2 0.3 -1.76 l0.32 -0.92 l0.56 -1.34 l0.92 -1.86 c-0.84 -0.06 -1.76 -0.34 -1.76 -1.38 c0 -0.28 0.02 -1 0.42 -1 c0.12 0 0.28 0.08 0.28 0.22 c0 0.12 -0.04 0.24 -0.04 0.36 c0 0.76 0.72 0.84 1.32 0.84 c0.08 0 0.28 -0.02 0.28 -0.02 z M14.832 15.26 l1.64 -2.8 l1.04 -1.6 s0.32 0.08 0.46 0.12 c0.34 0.1 0.92 0.3 0.92 0.74 c0 0.06 0.02 0.2 -0.04 0.22 l-0.24 0.36 l-1.3 2.16 l-0.94 1.78 c-0.02 0.04 -0.16 0.38 -0.22 0.48 c-0.06 0.16 -0.12 0.34 -0.12 0.52 c0 0.02 0 0.06 0.02 0.06 c0.16 0 0.42 -0.24 0.52 -0.34 c0.06 -0.06 0.32 -0.3 0.36 -0.34 c0.1 -0.1 0.4 -0.44 0.44 -0.48 l1.7 -2.06 l2.04 -2.72 l0.02 0 c0.44 0 1.38 0.4 1.38 0.88 c0 0.08 0 0.16 -0.06 0.2 l-1.84 3.44 l-0.56 1.22 c-0.14 0.36 -0.22 0.68 -0.22 1.04 c0.38 0 0.78 -0.26 1.08 -0.48 c0.08 -0.04 0.32 -0.22 0.34 -0.26 c0.42 -0.32 0.86 -0.72 1.2 -1.12 c0.1 -0.1 0.5 -0.54 0.56 -0.6 l1.16 -1.4 l1.26 -1.68 c0.04 -0.06 0.12 -0.18 0.2 -0.18 c0.06 0 0.12 0.02 0.2 0.04 c0.06 0.06 0.12 0.14 0.12 0.24 l0 0.04 l-1.42 1.92 l-1.34 1.6 l-0.96 1 l-0.64 0.56 c-0.62 0.54 -1.64 1.16 -2.52 1.16 c-0.78 0 -1.08 -0.6 -1.08 -1.3 c0 -0.62 0.28 -1.22 0.54 -1.78 l-1.46 1.46 c-0.02 0.02 -0.34 0.3 -0.46 0.38 c-0.38 0.32 -0.88 0.72 -1.42 0.72 c-0.7 0 -1.12 -0.42 -1.12 -1.12 c0 -0.48 0.2 -0.94 0.4 -1.36 c0.08 -0.18 0.34 -0.68 0.36 -0.72 z M18.532 15.9 l0 -0.02 l0 0.02 z M27.568 10.76 l0 -0.04 s0.08 -0.1 0.14 -0.16 c0.64 0.12 1.22 0.52 1.22 1.22 c0 0.1 -0.02 0.22 -0.06 0.3 l-0.62 1.44 c0.06 -0.08 0.32 -0.42 0.38 -0.48 c0.1 -0.14 0.62 -0.76 0.74 -0.88 c0.48 -0.6 1.52 -1.56 2.26 -1.56 c0.6 0 0.88 0.48 0.88 1.04 c0 0.44 -0.14 0.86 -0.36 1.26 l-0.86 1.64 c0.02 -0.04 0.16 -0.18 0.18 -0.2 l2.02 -2.02 l0.72 -0.62 c0.04 -0.04 0.38 -0.3 0.48 -0.38 c0.48 -0.32 1.06 -0.7 1.66 -0.7 c0.46 0 0.78 0.22 0.78 0.7 c0 0.36 -0.42 1.68 -0.7 1.96 l-1.18 2 c-0.24 0.42 -0.46 0.96 -0.46 1.44 c0 0.18 0 0.48 0.2 0.56 l0.06 0 c0.56 0 1.12 -0.58 1.44 -0.96 c0.06 -0.06 0.3 -0.32 0.34 -0.36 c0.1 -0.14 0.46 -0.6 0.5 -0.66 l1.96 -2.86 c0.08 -0.12 0.14 -0.2 0.14 -0.34 l0.1 0 c0.16 0 0.26 0 0.36 0.16 c0.02 0.02 0.04 0.06 0.04 0.1 c0 0.02 0 0.02 -0.02 0.04 c-0.04 0.12 -0.22 0.38 -0.22 0.4 l-1.22 1.9 l-1.18 1.62 c-0.5 0.76 -1.72 1.86 -2.62 1.86 c-1 0 -1.56 -0.58 -1.56 -1.56 c0 -0.66 0.24 -1.28 0.54 -1.84 l0.9 -1.68 c0.08 -0.16 0.18 -0.34 0.18 -0.52 c0 -0.02 0 -0.06 -0.02 -0.08 l-0.04 0 c-0.26 0 -0.9 0.38 -1.12 0.6 c-0.14 0.12 -0.54 0.46 -0.58 0.5 l-1 0.98 l-1.3 1.42 l-0.86 1.18 c-0.18 0.24 -0.42 0.32 -0.72 0.32 c-0.4 0 -1.06 0 -1.06 -0.58 c0 -0.06 0 -0.12 0.02 -0.16 l2.08 -3.96 c0.04 -0.08 0.1 -0.22 0.12 -0.32 c-0.4 0.16 -0.74 0.54 -1.02 0.84 c-0.12 0.14 -0.44 0.5 -0.48 0.54 l-0.7 0.88 l-0.6 0.9 c-0.1 0.14 -0.24 0.38 -0.32 0.56 l-0.44 1.14 c0 0.02 0 0.02 -0.02 0.04 c-0.18 0.1 -0.38 0.18 -0.6 0.18 c-0.44 0 -0.88 -0.22 -1.16 -0.54 l0 -0.06 c0 -0.5 0.46 -1.86 0.66 -2.3 l0.48 -1.1 z M31.268 14.54 l0 0.02 c0.02 0 0.02 -0.02 0 -0.02 z M28.248 13.54 l0 -0.02 c-0.02 0 -0.02 0.02 0 0.02 z"></path></g>
			</g>
		</svg>
	